<svg xmlns="http://www.w3.org/2000/svg" version="1.1" xmlns:xlink="http://www.w3.org/1999/xlink" xmlns:svgjs="http://svgjs.dev/svgjs" width="2000" height="782" viewBox="0 0 2000 782"><g transform="matrix(1,0,0,1,-1.2121212121212466,0.5562835002229463)"><svg viewBox="0 0 396 155" data-background-color="#ffffff" preserveAspectRatio="xMidYMid meet" height="782" width="2000" xmlns="http://www.w3.org/2000/svg" xmlns:xlink="http://www.w3.org/1999/xlink"><g id="tight-bounds" transform="matrix(1,0,0,1,0.2400000000000091,-0.11026079607999861)"><svg viewBox="0 0 395.52 155.22052159216" height="155.22052159216" width="395.52"><g><svg viewBox="0 0 561.7931447312249 220.47386972107745" height="155.22052159216" width="395.52"><g transform="matrix(1,0,0,1,166.27314473122487,30.470701242203916)"><svg viewBox="0 0 395.52 159.53246723666962" height="159.53246723666962" width="395.52"><g id="textblocktransform"><svg viewBox="0 0 395.52 159.53246723666962" height="159.53246723666962" width="395.52" id="textblock"><g><svg viewBox="0 0 395.52 86.04418979409131" height="86.04418979409131" width="395.52"><g transform="matrix(1,0,0,1,0,0)"><svg width="395.52" viewBox="0.25 -37 224.63 48.6" height="86.04418979409131" data-palette-color="#000000"><g class="wordmark-text-0" data-fill-palette-color="primary" id="text-0"><path d="M4.65 11.6L4.65 11.6Q3.15 11.6 2.02 11.3 0.9 11 0.25 10.6L0.25 10.6 1.25 6.85Q1.85 7.2 2.75 7.45 3.65 7.7 4.75 7.7L4.75 7.7Q6.85 7.7 8.5 6.35 10.15 5 11.65 1.05L11.65 1.05 12.8-1.95 10.4-1.95 0.25-24.8 4.25-26.6 13.95-4.95 21.5-26.4 25.65-24.8 16.1 1.3Q14.65 5.3 12.95 7.55 11.25 9.8 9.2 10.7 7.15 11.6 4.65 11.6ZM41.1 0.6L41.1 0.6Q37.4 0.6 34.45-1.13 31.5-2.85 29.82-5.93 28.15-9 28.15-13L28.15-13Q28.15-17.2 29.85-20.25 31.55-23.3 34.5-24.95 37.45-26.6 41.1-26.6L41.1-26.6Q44.75-26.6 47.67-24.95 50.6-23.3 52.32-20.28 54.05-17.25 54.05-13.1L54.05-13.1Q54.05-8.95 52.35-5.88 50.65-2.8 47.72-1.1 44.8 0.6 41.1 0.6ZM41.1-3.4L41.1-3.4Q45.05-3.4 47.25-6.08 49.45-8.75 49.45-13L49.45-13Q49.45-15.6 48.35-17.78 47.25-19.95 45.37-21.28 43.5-22.6 41.1-22.6L41.1-22.6Q37.15-22.6 34.95-20 32.75-17.4 32.75-13.1L32.75-13.1Q32.75-10.5 33.85-8.28 34.95-6.05 36.82-4.73 38.7-3.4 41.1-3.4ZM68.55 0.6L68.55 0.6Q66.3 0.6 64.3-0.35 62.3-1.3 61.05-3.43 59.8-5.55 59.8-9.1L59.8-9.1 59.8-26 64.3-26 64.3-9.7Q64.3-6.65 65.59-5.03 66.9-3.4 69.4-3.4L69.4-3.4Q71.45-3.4 73.37-4.23 75.3-5.05 76.8-6.45L76.8-6.45 76.8-26 81.3-26 81.3-6.75Q81.3-4.6 82.22-3.93 83.15-3.25 84.25-3.25L84.25-3.25 83.3 0.25Q78.65 0.25 77.55-3.45L77.55-3.45Q75.8-1.65 73.5-0.53 71.2 0.6 68.55 0.6ZM94.74 0L90.24 0 90.24-26 94.59-26 94.59-20.35Q95.24-22 96.34-23.43 97.44-24.85 99.09-25.73 100.74-26.6 102.94-26.6L102.94-26.6Q103.69-26.6 104.44-26.53 105.19-26.45 105.69-26.3L105.69-26.3 104.34-21.65Q103.39-22.05 102.09-22.05L102.09-22.05Q100.24-22.05 98.57-21 96.89-19.95 95.82-17.75 94.74-15.55 94.74-12.15L94.74-12.15 94.74 0Z" fill="#000000" data-fill-palette-color="primary"></path><path d="M135.29 0.4L135.29 0.4Q132.24 0.4 129.51 0.25 126.79 0.1 125.19-0.1L125.19-0.1 125.19-34.9Q126.94-35.1 129.54-35.25 132.14-35.4 135.49-35.4L135.49-35.4Q141.89-35.4 145.34-32.98 148.79-30.55 148.79-26.4L148.79-26.4Q148.79-23.65 147.31-21.73 145.84-19.8 143.04-18.55L143.04-18.55Q146.44-17.35 148.19-15.23 149.94-13.1 149.94-10L149.94-10Q149.94-5.25 146.19-2.43 142.44 0.4 135.29 0.4ZM129.94-31.3L129.94-19.9 135.44-19.9Q139.39-19.9 141.71-21.55 144.04-23.2 144.04-25.8L144.04-25.8Q144.04-28.6 141.74-30.08 139.44-31.55 135.44-31.55L135.44-31.55Q133.79-31.55 132.44-31.48 131.09-31.4 129.94-31.3L129.94-31.3ZM135.64-3.55L135.64-3.55Q140.09-3.55 142.59-5.15 145.09-6.75 145.09-9.8L145.09-9.8Q145.09-12.8 142.64-14.5 140.19-16.2 135.64-16.2L135.64-16.2 129.94-16.2 129.94-3.85Q132.59-3.55 135.64-3.55ZM164.09 0.6L164.09 0.6Q161.79 0.6 159.94-0.28 158.09-1.15 157.01-3.1 155.94-5.05 155.94-8.15L155.94-8.15 155.94-37 160.44-37 160.44-8.6Q160.44-5.9 161.56-4.6 162.69-3.3 164.69-3.3L164.69-3.3Q165.64-3.3 166.56-3.53 167.49-3.75 168.14-4.05L168.14-4.05 169.24-0.4Q168.34 0 167.01 0.3 165.69 0.6 164.09 0.6ZM184.43 0.6L184.43 0.6Q180.73 0.6 177.78-1.13 174.83-2.85 173.16-5.93 171.48-9 171.48-13L171.48-13Q171.48-17.2 173.18-20.25 174.88-23.3 177.83-24.95 180.78-26.6 184.43-26.6L184.43-26.6Q188.08-26.6 191.01-24.95 193.93-23.3 195.66-20.28 197.38-17.25 197.38-13.1L197.38-13.1Q197.38-8.95 195.68-5.88 193.98-2.8 191.06-1.1 188.13 0.6 184.43 0.6ZM184.43-3.4L184.43-3.4Q188.38-3.4 190.58-6.08 192.78-8.75 192.78-13L192.78-13Q192.78-15.6 191.68-17.78 190.58-19.95 188.71-21.28 186.83-22.6 184.43-22.6L184.43-22.6Q180.48-22.6 178.28-20 176.08-17.4 176.08-13.1L176.08-13.1Q176.08-10.5 177.18-8.28 178.28-6.05 180.16-4.73 182.03-3.4 184.43-3.4ZM212.93 11.6L212.93 11.6Q210.63 11.6 208.46 11.05 206.28 10.5 204.58 9.4L204.58 9.4 206.23 5.5Q207.43 6.45 209.03 7.08 210.63 7.7 212.93 7.7L212.93 7.7Q216.48 7.7 218.51 5.83 220.53 3.95 220.53-0.15L220.53-0.15 220.53-3.35Q219.53-2.15 217.66-1.07 215.78 0 213.18 0L213.18 0Q210.23 0 207.58-1.53 204.93-3.05 203.28-6 201.63-8.95 201.63-13.1L201.63-13.1Q201.63-17 203.26-20.05 204.88-23.1 207.63-24.85 210.38-26.6 213.68-26.6L213.68-26.6Q215.88-26.6 217.68-25.85 219.48-25.1 220.78-24L220.78-24 220.78-26 224.88-26 224.88-0.6Q224.88 3.7 223.38 6.4 221.88 9.1 219.21 10.35 216.53 11.6 212.93 11.6ZM214.18-4L214.18-4Q216.18-4 217.78-4.9 219.38-5.8 220.38-7L220.38-7 220.38-20.6Q219.28-21.4 217.73-22.05 216.18-22.7 214.13-22.7L214.13-22.7Q212.08-22.7 210.28-21.6 208.48-20.5 207.36-18.43 206.23-16.35 206.23-13.35L206.23-13.35Q206.23-10.5 207.36-8.4 208.48-6.3 210.28-5.15 212.08-4 214.18-4Z" fill="#000000" data-fill-palette-color="secondary"></path></g></svg></g></svg></g><g transform="matrix(1,0,0,1,0,106.35715794392121)"><svg viewBox="0 0 197.96986930307472 53.17530929274843" height="53.17530929274843" width="197.96986930307472"><g transform="matrix(1,0,0,1,0,0)"><svg width="197.96986930307472" viewBox="3 -37.7 180.73 48.550000000000004" height="53.17530929274843" data-palette-color="#61777f"><path d="M3-34.55L9.35-34.55 9.35-5.25 20.5-5.25 19.8 0 3 0 3-34.55ZM42.55-13.85Q42.55-13.4 42.4-11.3L42.4-11.3 28.75-11.3Q28.95-7.2 30.17-5.58 31.4-3.95 33.65-3.95L33.65-3.95Q35.2-3.95 36.45-4.48 37.7-5 39.15-6.15L39.15-6.15 41.7-2.65Q38.2 0.75 33.3 0.75L33.3 0.75Q28.1 0.75 25.32-2.85 22.55-6.45 22.55-13L22.55-13Q22.55-19.55 25.2-23.35 27.85-27.15 32.7-27.15L32.7-27.15Q37.35-27.15 39.95-23.78 42.55-20.4 42.55-13.85L42.55-13.85ZM36.55-15.3L36.55-15.65Q36.55-19.4 35.65-21.13 34.75-22.85 32.75-22.85L32.75-22.85Q30.9-22.85 29.92-21.18 28.95-19.5 28.75-15.3L28.75-15.3 36.55-15.3ZM58-5L60.15-1.2Q57.7 0.75 54.4 0.75L54.4 0.75Q50.95 0.75 49.15-1.23 47.35-3.2 47.35-6.6L47.35-6.6 47.35-22 44.25-22 44.25-26.45 47.35-26.45 47.35-32.3 53.5-33.05 53.5-26.45 58.5-26.45 57.9-22 53.5-22 53.5-6.6Q53.5-4.2 55.55-4.2L55.55-4.2Q56.2-4.2 56.7-4.38 57.2-4.55 58-5L58-5ZM66.94-21.05L62.89-21.05 62.19-34.55 67.64-34.55 66.94-21.05ZM80.19-27.15Q84.89-27.15 88.14-24.05L88.14-24.05 85.79-20.7Q84.39-21.7 83.14-22.2 81.89-22.7 80.59-22.7L80.59-22.7Q79.14-22.7 78.32-21.93 77.49-21.15 77.49-19.8L77.49-19.8Q77.49-18.45 78.42-17.63 79.34-16.8 82.14-15.7L82.14-15.7Q85.59-14.35 87.24-12.5 88.89-10.65 88.89-7.55L88.89-7.55Q88.89-3.7 86.19-1.48 83.49 0.75 79.34 0.75L79.34 0.75Q76.64 0.75 74.37-0.23 72.09-1.2 70.39-2.95L70.39-2.95 73.39-6.25Q76.19-3.8 79.09-3.8L79.09-3.8Q80.74-3.8 81.69-4.67 82.64-5.55 82.64-7.1L82.64-7.1Q82.64-8.25 82.24-8.97 81.84-9.7 80.84-10.33 79.84-10.95 77.84-11.7L77.84-11.7Q74.39-13.05 72.92-14.85 71.44-16.65 71.44-19.45L71.44-19.45Q71.44-22.8 73.82-24.98 76.19-27.15 80.19-27.15L80.19-27.15ZM114.74-27.15Q118.59-27.15 120.64-23.65 122.69-20.15 122.69-13.25L122.69-13.25Q122.69-6.75 120.39-3 118.09 0.75 114.09 0.75L114.09 0.75Q112.34 0.75 110.89-0.13 109.44-1 108.39-2.55L108.39-2.55 108.04 0 102.59 0 102.59-37 108.74-37.65 108.74-23.6Q109.79-25.3 111.31-26.23 112.84-27.15 114.74-27.15L114.74-27.15ZM112.44-3.9Q114.29-3.9 115.31-6 116.34-8.1 116.34-13.25L116.34-13.25Q116.34-18.6 115.41-20.58 114.49-22.55 112.79-22.55L112.79-22.55Q111.64-22.55 110.59-21.6 109.54-20.65 108.74-19.1L108.74-19.1 108.74-6.7Q109.39-5.45 110.36-4.67 111.34-3.9 112.44-3.9L112.44-3.9ZM132.88 0.75Q130.18 0.75 128.61-0.93 127.03-2.6 127.03-5.4L127.03-5.4 127.03-37.05 133.18-37.7 133.18-5.65Q133.18-5 133.48-4.6 133.78-4.2 134.38-4.2L134.38-4.2Q134.73-4.2 135.06-4.3 135.38-4.4 135.48-4.4L135.48-4.4 136.68-0.2Q134.98 0.75 132.88 0.75L132.88 0.75ZM149.13-27.15Q154.13-27.15 156.91-23.65 159.68-20.15 159.68-13.25L159.68-13.25Q159.68-6.65 156.88-2.95 154.08 0.75 149.13 0.75L149.13 0.75Q144.18 0.75 141.38-2.88 138.58-6.5 138.58-13.25L138.58-13.25Q138.58-19.95 141.38-23.55 144.18-27.15 149.13-27.15L149.13-27.15ZM149.13-22.5Q146.98-22.5 145.98-20.38 144.98-18.25 144.98-13.25L144.98-13.25Q144.98-8.2 145.98-6.08 146.98-3.95 149.13-3.95L149.13-3.95Q151.28-3.95 152.28-6.08 153.28-8.2 153.28-13.25L153.28-13.25Q153.28-18.3 152.28-20.4 151.28-22.5 149.13-22.5L149.13-22.5ZM182.18-29.85L183.73-25.1Q182.68-24.6 181.2-24.4 179.73-24.2 177.53-24.2L177.53-24.2Q179.63-23.2 180.65-21.53 181.68-19.85 181.68-17.4L181.68-17.4Q181.68-13.4 179.23-10.95 176.78-8.5 172.58-8.5L172.58-8.5Q171.33-8.5 170.03-8.9L170.03-8.9Q169.13-8.15 169.13-6.85L169.13-6.85Q169.13-5.85 169.68-5.35 170.23-4.85 171.73-4.85L171.73-4.85 174.53-4.85Q178.53-4.85 180.88-2.78 183.23-0.7 183.23 2.5L183.23 2.5Q183.23 6.3 180.3 8.58 177.38 10.85 171.98 10.85L171.98 10.85Q166.28 10.85 164 8.75 161.73 6.65 161.73 2.6L161.73 2.6 167.18 2.6Q167.18 4.75 168.18 5.65 169.18 6.55 172.03 6.55L172.03 6.55Q174.78 6.55 175.93 5.6 177.08 4.65 177.08 2.9L177.08 2.9Q177.08 1.2 176.13 0.4 175.18-0.4 173.18-0.4L173.18-0.4 171.28-0.4Q167.48-0.4 165.73-1.75 163.98-3.1 163.98-5.45L163.98-5.45Q163.98-6.8 164.7-8.03 165.43-9.25 166.68-10.2L166.68-10.2Q164.63-11.5 163.68-13.3 162.73-15.1 162.73-17.7L162.73-17.7Q162.73-22.05 165.33-24.58 167.93-27.1 172.33-27.1L172.33-27.1Q175.58-27.1 177.7-27.8 179.83-28.5 182.18-29.85L182.18-29.85ZM172.33-23Q170.58-23 169.68-21.75 168.78-20.5 168.78-17.8L168.78-17.8Q168.78-15.25 169.68-13.88 170.58-12.5 172.28-12.5L172.28-12.5Q174.03-12.5 174.88-13.73 175.73-14.95 175.73-17.85L175.73-17.85Q175.73-20.55 174.9-21.78 174.08-23 172.33-23L172.33-23Z" opacity="1" transform="matrix(1,0,0,1,0,0)" fill="#000000" class="slogan-text-1" data-fill-palette-color="secondary" id="text-1"></path></svg></g></svg></g></svg></g></svg></g><g><svg viewBox="0 0 145.96017658139496 220.47386972107745" height="220.47386972107745" width="145.96017658139496"><g><svg xmlns="http://www.w3.org/2000/svg" xmlns:xlink="http://www.w3.org/1999/xlink" version="1.1" x="0" y="0" viewBox="24.761855407245662 5 59.582643099359075 90" enable-background="new 0 0 100 100" xml:space="preserve" id="icon-0" width="145.96017658139496" height="220.47386972107745" class="icon-icon-0" data-fill-palette-color="accent"><g fill="#d2d6dc" data-fill-palette-color="accent"><path d="M73.76 35.603C86.875 48 91.5 66.25 65.633 82.379 69.273 77.451 71.287 72.585 71.729 67.71 72.68 57.194 66.123 48.638 58.894 40.958 48.298 29.7 47.51 18.84 56.413 6.782 54.578 22.641 64.6 26.944 73.76 35.603M45.288 93.716C51.472 80.663 52.564 73.414 37.091 58.777 32.887 54.8 29.64 50.748 27.381 46.691 24.5 53.126 22.217 66.772 30.625 74.626 36.312 79.938 44.125 83.125 45.288 93.716M56.709 43.014C48.183 33.954 41.999 21.253 54 5 21.497 17.692 19.625 38.125 39.151 56.597 55.603 72.158 54.75 80.75 48 95 79.875 71.5 68.709 55.764 56.709 43.014" fill="#000000" data-fill-palette-color="accent"></path></g></svg></g></svg></g></svg></g><defs></defs></svg><rect width="395.52" height="155.22052159216" fill="none" stroke="none" visibility="hidden"></rect></g></svg></g></svg>